<svg xmlns="http://www.w3.org/2000/svg" width="1000" height="1000" viewBox="0 0 1000 1000" shape-rendering="geometricPrecision">
<rect width="1000" height="1000" fill="#D20810"/>
<g transform="translate(365.213 158.803) scale(0.493979)" fill="#FFFFFF" fill-rule="evenodd">
<path d="M 255.417 1379.000 C 248.152 1378.999 252.393 1377.970 250.840 1377.618 C 249.286 1377.265 247.669 1377.160 246.094 1376.883 C 244.520 1376.607 242.941 1376.346 241.391 1375.958 C 239.842 1375.570 238.340 1374.986 236.799 1374.558 C 235.259 1374.129 233.657 1373.897 232.146 1373.388 C 230.634 1372.880 229.211 1372.112 227.732 1371.506 C 226.253 1370.900 224.749 1370.359 223.271 1369.752 C 221.793 1369.145 220.298 1368.561 218.861 1367.863 C 217.425 1367.166 216.040 1366.356 214.650 1365.566 C 213.259 1364.777 211.886 1363.952 210.518 1363.125 C 209.151 1362.297 207.780 1361.477 206.442 1360.602 C 205.104 1359.727 203.792 1358.807 202.491 1357.876 C 201.189 1356.945 199.899 1355.997 198.634 1355.017 C 197.370 1354.036 196.128 1353.025 194.906 1351.991 C 193.684 1350.958 192.472 1349.910 191.303 1348.817 C 190.135 1347.724 189.014 1346.579 187.897 1345.433 C 186.779 1344.288 185.683 1343.121 184.598 1341.944 C 183.514 1340.767 182.442 1339.578 181.391 1338.371 C 180.340 1337.164 179.296 1335.949 178.294 1334.702 C 177.292 1333.456 176.333 1332.175 175.379 1330.891 C 174.425 1329.607 173.480 1328.311 172.569 1326.998 C 171.657 1325.685 170.772 1324.359 169.909 1323.014 C 169.045 1321.670 168.236 1320.288 167.388 1318.932 C 166.539 1317.577 165.620 1316.263 164.818 1314.882 C 164.016 1313.501 163.282 1312.078 162.574 1310.646 C 161.866 1309.214 161.244 1307.740 160.570 1306.291 C 159.896 1304.842 159.140 1303.429 158.531 1301.953 C 157.922 1300.477 157.435 1298.946 156.916 1297.435 C 156.397 1295.924 155.889 1294.414 155.417 1292.887 C 154.946 1291.361 154.541 1289.811 154.086 1288.278 C 153.631 1286.745 153.037 1285.247 152.688 1283.690 C 152.339 1282.134 152.262 1280.516 151.993 1278.939 C 151.725 1277.361 151.359 1275.800 151.075 1274.225 C 150.790 1272.650 150.476 1271.077 150.288 1269.490 C 150.099 1267.902 150.029 1266.299 149.942 1264.701 C 149.854 1263.103 149.801 1261.502 149.763 1259.902 C 149.725 1258.301 149.719 1256.700 149.715 1255.099 C 149.710 1253.498 149.720 1251.897 149.734 1250.297 C 149.747 1248.696 149.765 1247.095 149.797 1245.495 C 149.828 1243.894 149.868 1242.294 149.923 1240.694 C 149.977 1239.094 150.049 1237.494 150.124 1235.895 C 150.198 1234.296 150.287 1232.698 150.370 1231.099 C 150.452 1229.500 150.531 1227.901 150.619 1226.303 C 150.706 1224.705 150.806 1223.107 150.894 1221.508 C 150.982 1219.910 151.076 1218.312 151.145 1216.712 C 151.214 1215.113 151.243 1213.512 151.309 1211.913 C 151.375 1210.313 151.467 1208.715 151.541 1207.116 C 151.614 1205.517 151.686 1203.918 151.749 1202.318 C 151.813 1200.718 151.868 1199.118 151.921 1197.518 C 151.974 1195.918 152.014 1194.318 152.068 1192.718 C 152.121 1191.118 152.185 1189.519 152.240 1187.919 C 152.295 1186.319 152.353 1184.719 152.398 1183.119 C 152.443 1181.518 152.477 1179.918 152.510 1178.317 C 152.543 1176.717 152.567 1175.116 152.595 1173.516 C 152.623 1171.915 152.632 1170.314 152.678 1168.714 C 152.725 1167.114 152.811 1165.515 152.875 1163.915 C 152.939 1162.316 152.998 1160.716 153.062 1159.117 C 153.125 1157.517 153.191 1155.918 153.255 1154.318 C 153.318 1152.718 153.372 1151.118 153.444 1149.519 C 153.515 1147.920 153.609 1146.322 153.682 1144.722 C 153.756 1143.123 153.814 1141.523 153.885 1139.924 C 153.955 1138.325 154.027 1136.726 154.105 1135.127 C 154.183 1133.528 154.275 1131.929 154.353 1130.330 C 154.431 1128.731 154.507 1127.132 154.571 1125.533 C 154.636 1123.933 154.679 1122.333 154.739 1120.733 C 154.799 1119.134 154.874 1117.535 154.931 1115.935 C 154.988 1114.335 155.029 1112.735 155.083 1111.135 C 155.137 1109.535 155.205 1107.935 155.255 1106.335 C 155.305 1104.735 155.335 1103.135 155.383 1101.534 C 155.432 1099.934 155.500 1098.335 155.546 1096.735 C 155.592 1095.134 155.627 1093.534 155.660 1091.933 C 155.693 1090.333 155.703 1088.732 155.745 1087.132 C 155.786 1085.531 155.840 1083.931 155.909 1082.332 C 155.977 1080.733 156.088 1079.135 156.156 1077.536 C 156.224 1075.936 156.256 1074.336 156.318 1072.736 C 156.379 1071.136 156.464 1069.538 156.525 1067.938 C 156.585 1066.338 156.618 1064.737 156.678 1063.138 C 156.738 1061.538 156.808 1059.939 156.882 1058.339 C 156.957 1056.740 157.054 1055.142 157.123 1053.543 C 157.191 1051.944 157.232 1050.343 157.293 1048.743 C 157.354 1047.144 157.428 1045.545 157.491 1043.946 C 157.553 1042.346 157.609 1040.746 157.668 1039.147 C 157.728 1037.547 157.794 1035.948 157.849 1034.348 C 157.904 1032.748 157.947 1031.148 157.997 1029.548 C 158.047 1027.948 158.097 1026.347 158.149 1024.747 C 158.202 1023.147 158.261 1021.548 158.311 1019.948 C 158.362 1018.348 158.416 1016.747 158.454 1015.147 C 158.491 1013.547 158.511 1011.946 158.536 1010.345 C 158.561 1008.745 158.568 1007.144 158.605 1005.543 C 158.642 1003.943 158.698 1002.343 158.758 1000.743 C 158.818 999.143 158.894 997.544 158.965 995.945 C 159.035 994.346 159.107 992.747 159.181 991.147 C 159.256 989.548 159.340 987.950 159.412 986.350 C 159.484 984.751 159.550 983.152 159.614 981.552 C 159.677 979.952 159.730 978.352 159.792 976.753 C 159.854 975.153 159.929 973.554 159.985 971.954 C 160.040 970.354 160.076 968.754 160.124 967.153 C 160.172 965.553 160.221 963.953 160.273 962.353 C 160.325 960.753 160.381 959.153 160.435 957.553 C 160.489 955.953 160.535 954.353 160.598 952.753 C 160.661 951.154 160.749 949.555 160.813 947.956 C 160.876 946.356 160.928 944.756 160.978 943.156 C 161.028 941.556 161.063 939.955 161.114 938.355 C 161.165 936.755 161.237 935.156 161.283 933.556 C 161.330 931.955 161.352 930.355 161.396 928.754 C 161.439 927.154 161.495 925.554 161.543 923.954 C 161.590 922.354 161.637 920.754 161.680 919.153 C 161.722 917.553 161.751 915.952 161.797 914.352 C 161.842 912.752 161.898 911.152 161.953 909.552 C 162.008 907.952 162.060 906.352 162.126 904.753 C 162.193 903.153 162.289 901.555 162.351 899.955 C 162.412 898.356 162.428 896.754 162.496 895.155 C 162.563 893.556 162.695 891.959 162.757 890.360 C 162.819 888.761 162.821 887.159 162.869 885.559 C 162.917 883.959 162.984 882.360 163.045 880.760 C 163.107 879.160 163.174 877.561 163.239 875.961 C 163.304 874.362 163.372 872.763 163.436 871.163 C 163.500 869.563 163.557 867.964 163.624 866.364 C 163.691 864.765 163.781 863.166 163.838 861.566 C 163.896 859.967 163.929 858.366 163.970 856.766 C 164.011 855.165 164.035 853.564 164.084 851.964 C 164.132 850.364 164.207 848.765 164.262 847.165 C 164.317 845.565 164.375 843.965 164.414 842.365 C 164.452 840.764 164.469 839.164 164.495 837.563 C 164.521 835.962 164.541 834.362 164.570 832.761 C 164.599 831.160 164.627 829.560 164.668 827.959 C 164.709 826.359 164.757 824.759 164.816 823.159 C 164.875 821.559 164.950 819.960 165.022 818.361 C 165.094 816.762 165.173 815.163 165.249 813.564 C 165.325 811.965 165.402 810.366 165.477 808.767 C 165.551 807.167 165.628 805.568 165.695 803.969 C 165.763 802.370 165.809 800.769 165.881 799.170 C 165.953 797.571 166.061 795.973 166.129 794.374 C 166.197 792.775 166.232 791.174 166.290 789.574 C 166.348 787.974 166.419 786.375 166.476 784.775 C 166.533 783.175 166.581 781.575 166.632 779.975 C 166.683 778.375 166.729 776.775 166.785 775.175 C 166.840 773.575 166.902 771.976 166.963 770.376 C 167.024 768.776 167.094 767.177 167.151 765.577 C 167.207 763.977 167.251 762.377 167.303 760.777 C 167.355 759.177 167.413 757.577 167.463 755.977 C 167.513 754.377 167.560 752.777 167.601 751.176 C 167.642 749.576 167.669 747.975 167.708 746.375 C 167.747 744.775 167.796 743.174 167.838 741.574 C 167.879 739.974 167.906 738.373 167.955 736.773 C 168.003 735.173 168.069 733.573 168.130 731.974 C 168.191 730.374 168.253 728.774 168.320 727.175 C 168.387 725.575 168.468 723.977 168.531 722.377 C 168.593 720.777 168.635 719.177 168.696 717.577 C 168.756 715.977 168.813 714.377 168.894 712.779 C 168.974 711.180 169.095 709.583 169.177 707.984 C 169.260 706.386 169.323 704.786 169.390 703.187 C 169.458 701.587 169.531 699.988 169.582 698.388 C 169.632 696.788 169.641 695.186 169.694 693.587 C 169.747 691.987 169.841 690.388 169.902 688.789 C 169.963 687.189 170.001 685.588 170.059 683.989 C 170.118 682.389 170.192 680.790 170.253 679.190 C 170.314 677.590 170.370 675.990 170.424 674.390 C 170.477 672.790 170.528 671.190 170.573 669.590 C 170.618 667.990 170.652 666.389 170.691 664.789 C 170.731 663.189 170.765 661.588 170.810 659.988 C 170.855 658.388 170.905 656.788 170.962 655.188 C 171.019 653.588 171.108 651.989 171.152 650.389 C 171.196 648.789 171.212 647.188 171.228 645.587 C 171.244 643.986 171.240 642.385 171.247 640.785 C 171.254 639.184 171.295 637.582 171.270 635.982 C 171.245 634.382 171.170 632.782 171.099 631.183 C 171.029 629.583 170.929 627.985 170.845 626.387 C 170.760 624.788 170.692 623.188 170.591 621.591 C 170.490 619.993 170.374 618.396 170.239 616.801 C 170.103 615.206 169.964 613.611 169.779 612.021 C 169.595 610.431 169.377 608.844 169.131 607.263 C 168.884 605.681 168.581 604.109 168.301 602.533 C 168.021 600.957 167.714 599.386 167.451 597.807 C 167.188 596.228 167.044 594.626 166.721 593.060 C 166.397 591.495 165.869 589.974 165.512 588.416 C 165.154 586.858 164.874 585.282 164.576 583.711 C 164.279 582.139 164.112 580.536 163.725 578.987 C 163.338 577.438 162.676 575.959 162.254 574.417 C 161.831 572.875 161.648 571.265 161.191 569.736 C 160.733 568.208 160.025 566.759 159.511 565.247 C 158.997 563.734 158.664 562.156 158.107 560.660 C 157.549 559.164 156.764 557.755 156.168 556.272 C 155.572 554.790 155.134 553.242 154.530 551.763 C 153.926 550.284 153.226 548.843 152.545 547.398 C 151.863 545.953 151.131 544.535 150.442 543.093 C 149.753 541.651 149.133 540.172 148.410 538.748 C 147.686 537.324 146.889 535.937 146.102 534.546 C 145.314 533.155 144.513 531.770 143.684 530.402 C 142.856 529.034 141.950 527.713 141.131 526.339 C 140.311 524.966 139.574 523.544 138.768 522.162 C 137.961 520.780 137.128 519.412 136.293 518.047 C 135.459 516.682 134.635 515.310 133.759 513.971 C 132.884 512.633 131.964 511.322 131.039 510.016 C 130.115 508.709 129.183 507.406 128.213 506.134 C 127.243 504.861 126.223 503.627 125.219 502.380 C 124.216 501.133 123.193 499.903 122.194 498.652 C 121.196 497.401 120.229 496.124 119.228 494.875 C 118.228 493.626 117.220 492.382 116.190 491.157 C 115.160 489.932 114.112 488.721 113.048 487.526 C 111.983 486.331 110.898 485.153 109.801 483.987 C 108.705 482.821 107.597 481.666 106.467 480.532 C 105.338 479.398 104.183 478.289 103.025 477.184 C 101.867 476.079 100.685 474.999 99.520 473.901 C 98.356 472.802 97.210 471.684 96.040 470.592 C 94.869 469.500 93.679 468.429 92.498 467.348 C 91.317 466.267 90.135 465.188 88.954 464.107 C 87.773 463.027 86.587 461.952 85.413 460.865 C 84.238 459.777 83.070 458.682 81.907 457.582 C 80.744 456.483 79.578 455.385 78.435 454.265 C 77.291 453.145 76.166 452.006 75.045 450.863 C 73.924 449.720 72.814 448.567 71.711 447.407 C 70.607 446.247 69.499 445.091 68.426 443.904 C 67.352 442.718 66.317 441.496 65.269 440.286 C 64.221 439.076 63.159 437.877 62.138 436.645 C 61.116 435.413 60.146 434.138 59.140 432.893 C 58.134 431.649 57.076 430.445 56.100 429.177 C 55.125 427.910 54.233 426.577 53.286 425.287 C 52.340 423.996 51.363 422.728 50.421 421.434 C 49.480 420.140 48.539 418.844 47.636 417.523 C 46.734 416.202 45.875 414.851 45.005 413.508 C 44.136 412.165 43.269 410.819 42.418 409.464 C 41.567 408.110 40.705 406.758 39.897 405.380 C 39.089 404.001 38.325 402.601 37.570 401.192 C 36.814 399.784 36.116 398.340 35.363 396.929 C 34.610 395.519 33.805 394.138 33.051 392.728 C 32.297 391.318 31.578 389.887 30.836 388.471 C 30.095 387.054 29.352 385.642 28.604 384.229 C 27.855 382.817 27.035 381.437 26.345 379.997 C 25.654 378.556 25.078 377.060 24.462 375.586 C 23.845 374.111 23.290 372.611 22.644 371.149 C 21.999 369.687 21.175 368.300 20.589 366.815 C 20.003 365.331 19.670 363.747 19.129 362.244 C 18.587 360.740 17.924 359.280 17.339 357.792 C 16.754 356.304 16.188 354.808 15.618 353.316 C 15.049 351.823 14.418 350.353 13.921 348.836 C 13.424 347.318 13.095 345.744 12.634 344.213 C 12.173 342.681 11.589 341.186 11.155 339.647 C 10.720 338.108 10.462 336.518 10.028 334.979 C 9.594 333.439 8.953 331.956 8.550 330.410 C 8.146 328.865 7.897 327.278 7.607 325.705 C 7.317 324.132 7.141 322.536 6.810 320.971 C 6.479 319.407 5.951 317.884 5.622 316.319 C 5.293 314.754 5.099 313.160 4.838 311.581 C 4.576 310.002 4.287 308.427 4.054 306.843 C 3.821 305.259 3.640 303.668 3.441 302.080 C 3.242 300.492 3.016 298.905 2.861 297.313 C 2.706 295.720 2.612 294.121 2.512 292.523 C 2.411 290.926 2.327 289.327 2.257 287.727 C 2.186 286.128 2.131 284.528 2.087 282.928 C 2.042 281.328 2.017 279.727 1.989 278.126 C 1.960 276.526 1.934 274.925 1.916 273.324 C 1.898 271.723 1.881 270.123 1.882 268.522 C 1.882 266.921 1.890 265.320 1.921 263.720 C 1.951 262.119 2.014 260.519 2.063 258.919 C 2.112 257.319 2.169 255.719 2.216 254.119 C 2.264 252.519 2.293 250.918 2.347 249.318 C 2.402 247.718 2.444 246.117 2.544 244.520 C 2.645 242.922 2.781 241.326 2.951 239.735 C 3.121 238.144 3.359 236.560 3.563 234.972 C 3.767 233.384 3.981 231.797 4.175 230.209 C 4.370 228.620 4.530 227.026 4.729 225.438 C 4.929 223.850 5.099 222.254 5.373 220.679 C 5.647 219.103 6.051 217.552 6.373 215.985 C 6.695 214.418 7.023 212.850 7.305 211.275 C 7.588 209.700 7.720 208.093 8.066 206.534 C 8.411 204.974 8.949 203.459 9.380 201.918 C 9.811 200.377 10.228 198.832 10.651 197.289 C 11.074 195.745 11.453 194.189 11.918 192.659 C 12.383 191.128 12.973 189.636 13.439 188.106 C 13.905 186.576 14.211 184.996 14.716 183.480 C 15.220 181.964 15.930 180.518 16.465 179.011 C 17.000 177.504 17.384 175.943 17.925 174.439 C 18.465 172.936 19.109 171.468 19.709 169.987 C 20.309 168.507 20.912 167.031 21.523 165.555 C 22.134 164.079 22.703 162.581 23.374 161.130 C 24.045 159.680 24.832 158.283 25.548 156.853 C 26.263 155.424 26.962 153.989 27.667 152.554 C 28.372 151.120 29.042 149.666 29.778 148.246 C 30.513 146.826 31.294 145.428 32.081 144.036 C 32.869 142.643 33.700 141.275 34.503 139.893 C 35.306 138.510 36.103 137.124 36.900 135.739 C 37.698 134.353 38.460 132.947 39.286 131.580 C 40.113 130.213 41.016 128.894 41.862 127.537 C 42.707 126.180 43.490 124.779 44.358 123.436 C 45.227 122.094 46.175 120.803 47.075 119.480 C 47.974 118.156 48.843 116.811 49.756 115.497 C 50.669 114.184 51.611 112.892 52.553 111.599 C 53.495 110.306 54.424 108.998 55.408 107.738 C 56.392 106.477 57.358 105.184 58.458 104.034 C 59.558 102.884 60.702 101.732 62.006 100.839 C 63.309 99.947 64.774 99.119 66.279 98.679 C 67.784 98.239 69.461 98.132 71.036 98.199 C 72.611 98.267 74.262 98.525 75.728 99.086 C 77.194 99.647 78.662 100.525 79.831 101.565 C 81.000 102.606 81.881 103.995 82.740 105.328 C 83.598 106.660 84.375 108.091 84.982 109.561 C 85.588 111.032 85.851 112.643 86.381 114.149 C 86.911 115.656 87.607 117.104 88.162 118.602 C 88.717 120.100 89.167 121.637 89.711 123.139 C 90.255 124.641 90.885 126.110 91.429 127.612 C 91.973 129.114 92.436 130.647 92.975 132.151 C 93.514 133.656 94.104 135.142 94.662 136.641 C 95.219 138.140 95.797 139.633 96.320 141.143 C 96.843 142.653 97.305 144.181 97.799 145.700 C 98.294 147.219 98.790 148.737 99.287 150.257 C 99.785 151.776 100.239 153.313 100.782 154.816 C 101.325 156.320 102.023 157.768 102.547 159.278 C 103.070 160.787 103.416 162.357 103.922 163.873 C 104.429 165.389 105.090 166.854 105.586 168.373 C 106.081 169.893 106.374 171.481 106.897 172.990 C 107.420 174.499 108.199 175.919 108.724 177.427 C 109.248 178.935 109.524 180.530 110.047 182.039 C 110.570 183.549 111.337 184.974 111.861 186.483 C 112.386 187.993 112.657 189.591 113.194 191.095 C 113.730 192.598 114.557 193.998 115.081 195.505 C 115.605 197.011 115.831 198.619 116.338 200.133 C 116.845 201.646 117.581 203.083 118.122 204.586 C 118.664 206.089 119.044 207.651 119.587 209.152 C 120.130 210.654 120.844 212.091 121.381 213.595 C 121.917 215.098 122.281 216.664 122.806 218.172 C 123.332 219.680 123.962 221.152 124.534 222.644 C 125.105 224.135 125.673 225.628 126.236 227.123 C 126.800 228.618 127.341 230.121 127.913 231.613 C 128.485 233.105 129.132 234.570 129.669 236.075 C 130.206 237.580 130.593 239.138 131.135 240.642 C 131.677 242.145 132.409 243.582 132.920 245.094 C 133.432 246.607 133.717 248.195 134.202 249.717 C 134.687 251.240 135.328 252.713 135.829 254.232 C 136.330 255.750 136.682 257.320 137.207 258.830 C 137.733 260.339 138.478 261.773 138.984 263.288 C 139.490 264.803 139.756 266.398 140.245 267.919 C 140.733 269.441 141.407 270.902 141.916 272.418 C 142.425 273.934 142.762 275.511 143.300 277.016 C 143.838 278.520 144.571 279.955 145.145 281.446 C 145.719 282.937 146.104 284.504 146.744 285.964 C 147.384 287.423 148.164 288.836 148.986 290.204 C 149.808 291.573 150.702 292.910 151.675 294.175 C 152.648 295.439 153.666 296.702 154.825 297.790 C 155.985 298.878 157.312 299.807 158.632 300.704 C 159.952 301.601 161.348 302.405 162.746 303.171 C 164.144 303.938 165.567 304.649 167.020 305.302 C 168.472 305.955 169.958 306.558 171.462 307.091 C 172.965 307.624 174.514 308.022 176.038 308.498 C 177.562 308.974 179.074 309.494 180.607 309.945 C 182.139 310.396 183.698 310.762 185.232 311.204 C 186.767 311.646 188.292 312.115 189.815 312.597 C 191.338 313.079 192.840 313.637 194.372 314.095 C 195.904 314.552 197.476 314.879 199.006 315.341 C 200.537 315.804 202.023 316.410 203.554 316.870 C 205.085 317.329 206.672 317.608 208.193 318.097 C 209.714 318.587 211.159 319.311 212.679 319.806 C 214.198 320.301 215.788 320.579 217.310 321.066 C 218.832 321.553 220.282 322.267 221.811 322.730 C 223.339 323.193 224.955 323.371 226.481 323.842 C 228.006 324.314 229.444 325.063 230.964 325.558 C 232.483 326.053 234.078 326.321 235.599 326.811 C 237.121 327.300 238.569 328.019 240.094 328.496 C 241.618 328.972 243.221 329.201 244.747 329.669 C 246.274 330.137 247.737 330.799 249.254 331.302 C 250.770 331.804 252.329 332.184 253.847 332.684 C 255.364 333.184 256.836 333.828 258.360 334.301 C 259.884 334.775 261.451 335.103 262.991 335.527 C 264.530 335.951 266.058 336.414 267.596 336.844 C 269.134 337.274 270.655 337.801 272.221 338.107 C 273.786 338.413 275.394 338.575 276.988 338.680 C 278.581 338.785 280.189 338.820 281.783 338.739 C 283.378 338.658 284.980 338.463 286.554 338.194 C 288.128 337.926 289.709 337.610 291.228 337.128 C 292.747 336.646 294.210 335.954 295.668 335.303 C 297.125 334.651 298.609 334.036 299.975 333.219 C 301.340 332.403 302.605 331.393 303.859 330.402 C 305.113 329.411 306.331 328.364 307.499 327.272 C 308.667 326.180 309.768 325.012 310.867 323.848 C 311.966 322.685 313.045 321.501 314.092 320.291 C 315.139 319.081 316.110 317.806 317.149 316.590 C 318.188 315.373 319.265 314.187 320.328 312.990 C 321.390 311.792 322.488 310.627 323.522 309.406 C 324.556 308.185 325.518 306.903 326.531 305.664 C 327.545 304.425 328.597 303.218 329.603 301.973 C 330.608 300.729 331.582 299.458 332.566 298.195 C 333.549 296.932 334.525 295.663 335.504 294.397 C 336.484 293.131 337.455 291.859 338.443 290.599 C 339.430 289.340 340.419 288.082 341.430 286.841 C 342.440 285.600 343.472 284.375 344.507 283.154 C 345.541 281.932 346.605 280.736 347.636 279.511 C 348.666 278.287 349.672 277.041 350.691 275.806 C 351.709 274.571 352.737 273.344 353.746 272.102 C 354.755 270.859 355.724 269.583 356.745 268.350 C 357.765 267.118 358.827 265.921 359.868 264.705 C 360.908 263.489 361.940 262.264 362.990 261.056 C 364.039 259.848 365.107 258.655 366.167 257.455 C 367.226 256.255 368.287 255.056 369.344 253.854 C 370.401 252.652 371.465 251.456 372.507 250.241 C 373.549 249.026 374.567 247.793 375.593 246.565 C 376.620 245.337 377.653 244.115 378.664 242.874 C 379.675 241.633 380.654 240.366 381.659 239.120 C 382.663 237.874 383.683 236.640 384.692 235.398 C 385.701 234.155 386.687 232.893 387.714 231.666 C 388.740 230.438 389.819 229.255 390.852 228.033 C 391.885 226.810 392.895 225.568 393.911 224.331 C 394.926 223.094 395.940 221.855 396.945 220.609 C 397.950 219.364 398.943 218.108 399.943 216.859 C 400.943 215.609 401.958 214.372 402.945 213.113 C 403.932 211.853 404.869 210.552 405.866 209.301 C 406.863 208.049 407.909 206.836 408.929 205.603 C 409.950 204.370 410.953 203.121 411.989 201.901 C 413.025 200.681 414.096 199.491 415.145 198.281 C 416.193 197.072 417.238 195.859 418.280 194.645 C 419.323 193.430 420.377 192.224 421.399 190.993 C 422.422 189.762 423.409 188.502 424.416 187.258 C 425.423 186.014 426.438 184.776 427.442 183.529 C 428.446 182.282 429.412 181.005 430.439 179.777 C 431.465 178.550 432.544 177.365 433.600 176.162 C 434.656 174.960 435.718 173.762 436.777 172.561 C 437.835 171.361 438.905 170.170 439.951 168.958 C 440.997 167.746 442.032 166.525 443.053 165.292 C 444.073 164.059 445.066 162.804 446.073 161.560 C 447.080 160.315 448.070 159.058 449.093 157.827 C 450.116 156.596 451.191 155.408 452.211 154.174 C 453.231 152.941 454.197 151.664 455.211 150.426 C 456.226 149.188 457.271 147.974 458.298 146.747 C 459.325 145.520 460.342 144.286 461.374 143.063 C 462.406 141.840 463.459 140.635 464.490 139.410 C 465.521 138.186 466.561 136.968 467.558 135.716 C 468.556 134.465 469.498 133.169 470.474 131.901 C 471.450 130.632 472.422 129.360 473.415 128.105 C 474.408 126.850 475.397 125.592 476.432 124.372 C 477.468 123.153 478.581 121.999 479.628 120.788 C 480.675 119.578 481.679 118.329 482.715 117.109 C 483.750 115.888 484.748 114.627 485.842 113.465 C 486.936 112.303 488.005 110.540 489.277 110.136 C 490.549 109.732 492.301 110.246 493.474 111.040 C 494.648 111.834 495.377 113.606 496.318 114.898 C 497.260 116.191 498.219 117.477 499.122 118.797 C 500.025 120.116 500.870 121.472 501.737 122.816 C 502.604 124.160 503.475 125.504 504.324 126.860 C 505.173 128.216 506.007 129.582 506.832 130.953 C 507.657 132.323 508.499 133.685 509.275 135.083 C 510.052 136.480 510.755 137.919 511.492 139.337 C 512.228 140.755 512.957 142.173 513.694 143.591 C 514.431 145.010 515.176 146.427 515.914 147.846 C 516.652 149.265 517.456 150.653 518.120 152.106 C 518.784 153.558 519.277 155.088 519.898 156.561 C 520.520 158.034 521.218 159.475 521.848 160.944 C 522.478 162.413 523.091 163.890 523.677 165.375 C 524.263 166.861 524.806 168.360 525.364 169.857 C 525.921 171.354 526.521 172.840 527.021 174.358 C 527.521 175.877 527.831 177.461 528.364 178.967 C 528.897 180.472 529.712 181.878 530.220 183.390 C 530.728 184.901 530.970 186.500 531.412 188.036 C 531.854 189.572 532.438 191.068 532.873 192.607 C 533.307 194.145 533.623 195.717 534.021 197.266 C 534.419 198.816 534.830 200.363 535.262 201.903 C 535.693 203.443 536.256 204.951 536.612 206.508 C 536.968 208.065 537.088 209.676 537.396 211.245 C 537.704 212.815 538.098 214.368 538.459 215.926 C 538.820 217.484 539.260 219.025 539.561 220.594 C 539.862 222.164 540.025 223.762 540.265 225.345 C 540.506 226.928 540.747 228.510 541.005 230.090 C 541.262 231.670 541.558 233.244 541.809 234.825 C 542.060 236.406 542.329 237.985 542.510 239.575 C 542.690 241.164 542.782 242.765 542.893 244.362 C 543.004 245.959 543.081 247.558 543.174 249.156 C 543.267 250.754 543.369 252.352 543.451 253.951 C 543.533 255.549 543.608 257.149 543.667 258.748 C 543.725 260.348 543.774 261.948 543.803 263.549 C 543.832 265.149 543.840 266.750 543.840 268.351 C 543.840 269.952 543.834 271.553 543.803 273.154 C 543.772 274.754 543.713 276.354 543.655 277.954 C 543.597 279.554 543.530 281.153 543.454 282.752 C 543.379 284.351 543.301 285.950 543.203 287.548 C 543.105 289.146 543.022 290.746 542.865 292.338 C 542.707 293.931 542.506 295.521 542.257 297.102 C 542.009 298.683 541.644 300.245 541.375 301.822 C 541.105 303.400 540.876 304.984 540.639 306.567 C 540.402 308.150 540.184 309.736 539.953 311.320 C 539.721 312.904 539.573 314.505 539.249 316.070 C 538.926 317.635 538.365 319.150 538.012 320.709 C 537.659 322.269 537.423 323.855 537.131 325.428 C 536.839 327.001 536.665 328.604 536.258 330.147 C 535.851 331.689 535.118 333.144 534.689 334.683 C 534.260 336.222 534.081 337.830 533.686 339.379 C 533.291 340.927 532.755 342.438 532.320 343.976 C 531.885 345.514 531.520 347.073 531.074 348.608 C 530.629 350.143 530.148 351.666 529.649 353.184 C 529.151 354.702 528.618 356.212 528.082 357.717 C 527.546 359.223 526.968 360.712 526.433 362.218 C 525.897 363.724 525.482 365.280 524.868 366.753 C 524.253 368.226 523.394 369.595 522.746 371.056 C 522.097 372.516 521.600 374.045 520.976 375.517 C 520.351 376.989 519.686 378.445 518.999 379.888 C 518.312 381.331 517.551 382.738 516.853 384.176 C 516.156 385.614 515.541 387.092 514.815 388.516 C 514.090 389.939 513.319 391.344 512.501 392.717 C 511.683 394.090 510.747 395.391 509.907 396.752 C 509.067 398.113 508.278 399.507 507.462 400.882 C 506.646 402.258 505.838 403.634 505.013 405.004 C 504.188 406.373 503.365 407.745 502.513 409.099 C 501.661 410.452 500.774 411.785 499.901 413.125 C 499.029 414.466 498.180 415.821 497.276 417.141 C 496.373 418.460 495.417 419.745 494.480 421.043 C 493.544 422.341 492.598 423.632 491.657 424.927 C 490.717 426.222 489.804 427.538 488.836 428.812 C 487.869 430.085 486.829 431.303 485.853 432.570 C 484.876 433.837 483.948 435.144 482.976 436.415 C 482.003 437.686 481.003 438.936 480.018 440.197 C 479.032 441.458 478.089 442.755 477.062 443.981 C 476.035 445.208 474.939 446.376 473.857 447.555 C 472.776 448.735 471.685 449.908 470.575 451.061 C 469.464 452.213 468.340 453.354 467.193 454.471 C 466.046 455.587 464.865 456.669 463.694 457.760 C 462.523 458.851 461.346 459.936 460.165 461.016 C 458.983 462.096 457.791 463.165 456.606 464.241 C 455.421 465.316 454.238 466.396 453.053 467.472 C 451.868 468.548 450.682 469.623 449.495 470.697 C 448.307 471.770 447.120 472.844 445.929 473.914 C 444.738 474.983 443.521 476.025 442.349 477.114 C 441.176 478.204 440.027 479.319 438.895 480.451 C 437.764 481.583 436.655 482.738 435.561 483.906 C 434.467 485.075 433.393 486.263 432.331 487.461 C 431.270 488.659 430.242 489.887 429.192 491.094 C 428.141 492.302 427.053 493.477 426.027 494.705 C 425.001 495.933 424.015 497.196 423.037 498.463 C 422.059 499.729 421.123 501.028 420.158 502.305 C 419.194 503.582 418.217 504.850 417.250 506.126 C 416.284 507.401 415.275 508.647 414.360 509.958 C 413.444 511.269 412.614 512.642 411.758 513.993 C 410.902 515.345 410.074 516.713 409.224 518.067 C 408.375 519.422 407.490 520.755 406.662 522.123 C 405.833 523.491 405.065 524.896 404.253 526.274 C 403.441 527.651 402.589 529.005 401.789 530.389 C 400.989 531.774 400.186 533.160 399.453 534.580 C 398.719 536.000 398.078 537.468 397.386 538.908 C 396.695 540.348 396.008 541.787 395.304 543.221 C 394.601 544.656 393.833 546.064 393.164 547.515 C 392.495 548.966 391.939 550.468 391.292 551.927 C 390.646 553.387 389.927 554.811 389.287 556.274 C 388.646 557.737 387.989 559.203 387.451 560.707 C 386.913 562.211 386.587 563.789 386.059 565.298 C 385.532 566.806 384.782 568.240 384.285 569.758 C 383.789 571.276 383.524 572.868 383.079 574.404 C 382.634 575.941 382.035 577.434 381.616 578.976 C 381.198 580.517 380.886 582.089 380.567 583.655 C 380.248 585.221 380.047 586.812 379.701 588.372 C 379.356 589.933 378.823 591.455 378.496 593.019 C 378.169 594.584 377.955 596.176 377.739 597.761 C 377.523 599.347 377.409 600.947 377.201 602.534 C 376.994 604.121 376.735 605.701 376.494 607.283 C 376.253 608.866 375.961 610.441 375.753 612.028 C 375.544 613.615 375.390 615.209 375.245 616.803 C 375.101 618.397 374.983 619.995 374.885 621.592 C 374.787 623.190 374.726 624.790 374.657 626.389 C 374.588 627.989 374.518 629.588 374.473 631.188 C 374.428 632.788 374.407 634.389 374.389 635.990 C 374.370 637.591 374.369 639.192 374.363 640.793 C 374.357 642.393 374.347 643.994 374.353 645.595 C 374.358 647.196 374.362 648.797 374.394 650.397 C 374.426 651.998 374.501 653.597 374.546 655.197 C 374.591 656.798 374.627 658.398 374.666 659.999 C 374.706 661.599 374.737 663.200 374.784 664.800 C 374.831 666.400 374.892 668.000 374.947 669.600 C 375.002 671.199 375.063 672.799 375.116 674.399 C 375.168 675.999 375.201 677.600 375.262 679.200 C 375.322 680.799 375.417 682.397 375.479 683.997 C 375.541 685.596 375.576 687.197 375.635 688.797 C 375.695 690.397 375.763 691.996 375.836 693.595 C 375.910 695.194 375.993 696.793 376.076 698.392 C 376.159 699.990 376.259 701.588 376.335 703.187 C 376.411 704.786 376.458 706.387 376.532 707.986 C 376.606 709.585 376.712 711.183 376.777 712.782 C 376.842 714.382 376.877 715.982 376.923 717.583 C 376.969 719.183 377.012 720.783 377.054 722.383 C 377.097 723.984 377.138 725.584 377.178 727.184 C 377.217 728.785 377.246 730.385 377.290 731.986 C 377.334 733.586 377.390 735.186 377.440 736.786 C 377.490 738.386 377.550 739.986 377.591 741.586 C 377.632 743.186 377.642 744.787 377.688 746.388 C 377.735 747.988 377.815 749.587 377.871 751.187 C 377.926 752.787 377.973 754.387 378.019 755.987 C 378.066 757.587 378.095 759.188 378.148 760.788 C 378.201 762.388 378.283 763.987 378.337 765.587 C 378.391 767.187 378.416 768.787 378.472 770.387 C 378.527 771.987 378.614 773.586 378.672 775.185 C 378.729 776.785 378.757 778.386 378.817 779.986 C 378.877 781.586 378.953 783.185 379.030 784.784 C 379.108 786.383 379.211 787.980 379.283 789.580 C 379.356 791.179 379.396 792.779 379.466 794.379 C 379.535 795.978 379.630 797.576 379.699 799.175 C 379.769 800.775 379.822 802.374 379.882 803.974 C 379.942 805.574 380.009 807.173 380.060 808.773 C 380.111 810.373 380.143 811.974 380.187 813.574 C 380.231 815.174 380.285 816.774 380.324 818.375 C 380.362 819.975 380.384 821.576 380.419 823.177 C 380.453 824.777 380.498 826.377 380.533 827.978 C 380.568 829.578 380.586 831.179 380.627 832.779 C 380.669 834.379 380.728 835.979 380.781 837.579 C 380.835 839.179 380.888 840.779 380.949 842.379 C 381.010 843.979 381.084 845.578 381.146 847.177 C 381.208 848.777 381.261 850.377 381.320 851.977 C 381.378 853.577 381.444 855.176 381.495 856.776 C 381.545 858.376 381.576 859.977 381.621 861.577 C 381.667 863.177 381.728 864.777 381.768 866.378 C 381.809 867.978 381.819 869.579 381.866 871.179 C 381.912 872.779 381.982 874.379 382.050 875.978 C 382.117 877.578 382.197 879.177 382.270 880.776 C 382.343 882.375 382.421 883.974 382.488 885.573 C 382.555 887.172 382.611 888.772 382.671 890.372 C 382.731 891.972 382.795 893.571 382.847 895.171 C 382.900 896.771 382.937 898.372 382.987 899.972 C 383.037 901.572 383.105 903.171 383.147 904.772 C 383.188 906.372 383.189 907.973 383.235 909.574 C 383.280 911.174 383.369 912.772 383.419 914.372 C 383.468 915.973 383.488 917.574 383.532 919.174 C 383.576 920.774 383.623 922.374 383.683 923.974 C 383.744 925.574 383.839 927.172 383.894 928.772 C 383.949 930.372 383.967 931.973 384.015 933.573 C 384.062 935.173 384.106 936.774 384.177 938.373 C 384.247 939.972 384.360 941.569 384.438 943.168 C 384.515 944.767 384.574 946.367 384.643 947.966 C 384.712 949.565 384.778 951.165 384.849 952.764 C 384.921 954.363 385.004 955.962 385.071 957.561 C 385.139 959.161 385.191 960.761 385.254 962.361 C 385.318 963.960 385.386 965.560 385.450 967.159 C 385.514 968.759 385.578 970.358 385.639 971.958 C 385.701 973.558 385.758 975.158 385.818 976.757 C 385.878 978.357 385.945 979.957 386.000 981.557 C 386.055 983.156 386.095 984.757 386.145 986.357 C 386.195 987.957 386.258 989.557 386.300 991.157 C 386.342 992.757 386.366 994.358 386.397 995.959 C 386.428 997.559 386.453 999.160 386.487 1000.760 C 386.521 1002.361 386.557 1003.961 386.601 1005.562 C 386.644 1007.162 386.698 1008.762 386.746 1010.362 C 386.794 1011.962 386.835 1013.563 386.888 1015.163 C 386.940 1016.763 387.009 1018.362 387.061 1019.962 C 387.114 1021.562 387.151 1023.163 387.204 1024.763 C 387.257 1026.363 387.325 1027.962 387.380 1029.562 C 387.435 1031.162 387.477 1032.762 387.533 1034.362 C 387.589 1035.962 387.644 1037.562 387.716 1039.161 C 387.787 1040.760 387.884 1042.358 387.963 1043.957 C 388.042 1045.556 388.114 1047.155 388.187 1048.755 C 388.261 1050.354 388.338 1051.953 388.404 1053.552 C 388.470 1055.152 388.520 1056.752 388.583 1058.352 C 388.646 1059.951 388.723 1061.550 388.782 1063.150 C 388.841 1064.750 388.894 1066.350 388.935 1067.950 C 388.977 1069.550 388.986 1071.152 389.029 1072.752 C 389.071 1074.352 389.147 1075.951 389.191 1077.552 C 389.235 1079.152 389.254 1080.753 389.293 1082.353 C 389.332 1083.954 389.381 1085.554 389.427 1087.154 C 389.473 1088.754 389.521 1090.354 389.569 1091.954 C 389.617 1093.555 389.670 1095.155 389.715 1096.755 C 389.760 1098.355 389.788 1099.956 389.839 1101.556 C 389.890 1103.156 389.961 1104.755 390.020 1106.355 C 390.080 1107.955 390.137 1109.555 390.197 1111.154 C 390.256 1112.754 390.318 1114.354 390.378 1115.953 C 390.437 1117.553 390.493 1119.153 390.554 1120.753 C 390.615 1122.352 390.675 1123.952 390.745 1125.552 C 390.815 1127.151 390.897 1128.750 390.972 1130.349 C 391.047 1131.948 391.112 1133.548 391.194 1135.146 C 391.276 1136.745 391.388 1138.342 391.464 1139.941 C 391.541 1141.540 391.587 1143.141 391.653 1144.740 C 391.718 1146.340 391.790 1147.939 391.859 1149.538 C 391.927 1151.138 392.005 1152.737 392.064 1154.336 C 392.123 1155.936 392.166 1157.537 392.213 1159.137 C 392.260 1160.737 392.305 1162.337 392.344 1163.938 C 392.382 1165.538 392.411 1167.139 392.443 1168.739 C 392.474 1170.340 392.493 1171.940 392.533 1173.541 C 392.574 1175.141 392.636 1176.741 392.687 1178.341 C 392.738 1179.941 392.790 1181.541 392.841 1183.141 C 392.893 1184.741 392.944 1186.341 392.995 1187.941 C 393.046 1189.541 393.098 1191.141 393.148 1192.741 C 393.198 1194.341 393.246 1195.941 393.297 1197.542 C 393.348 1199.142 393.402 1200.742 393.453 1202.342 C 393.504 1203.942 393.546 1205.542 393.602 1207.142 C 393.657 1208.742 393.713 1210.342 393.786 1211.941 C 393.860 1213.540 393.958 1215.138 394.042 1216.737 C 394.125 1218.335 394.198 1219.935 394.287 1221.533 C 394.376 1223.131 394.488 1224.729 394.576 1226.327 C 394.664 1227.925 394.728 1229.525 394.815 1231.124 C 394.902 1232.722 395.026 1234.319 395.098 1235.918 C 395.170 1237.517 395.205 1239.118 395.247 1240.718 C 395.290 1242.318 395.317 1243.919 395.354 1245.519 C 395.392 1247.120 395.448 1248.720 395.472 1250.320 C 395.497 1251.921 395.509 1253.522 395.500 1255.123 C 395.491 1256.723 395.460 1258.324 395.420 1259.925 C 395.379 1261.525 395.358 1263.128 395.259 1264.725 C 395.160 1266.321 395.036 1267.919 394.825 1269.504 C 394.614 1271.089 394.285 1272.660 393.994 1274.234 C 393.702 1275.808 393.351 1277.371 393.076 1278.948 C 392.801 1280.524 392.699 1282.139 392.343 1283.694 C 391.987 1285.249 391.393 1286.744 390.940 1288.276 C 390.486 1289.809 390.087 1291.361 389.620 1292.888 C 389.153 1294.415 388.650 1295.926 388.138 1297.438 C 387.625 1298.950 387.140 1300.480 386.544 1301.960 C 385.949 1303.440 385.216 1304.860 384.566 1306.319 C 383.916 1307.778 383.318 1309.265 382.645 1310.714 C 381.972 1312.163 381.299 1313.616 380.529 1315.013 C 379.760 1316.411 378.868 1317.740 378.026 1319.097 C 377.185 1320.453 376.346 1321.810 375.481 1323.154 C 374.616 1324.497 373.737 1325.836 372.836 1327.158 C 371.935 1328.480 371.038 1329.808 370.078 1331.087 C 369.117 1332.365 368.106 1333.607 367.073 1334.829 C 366.041 1336.051 364.947 1337.222 363.882 1338.417 C 362.818 1339.612 361.792 1340.843 360.686 1341.998 C 359.579 1343.153 358.391 1344.230 357.242 1345.345 C 356.093 1346.460 354.961 1347.592 353.793 1348.686 C 352.625 1349.781 351.440 1350.858 350.235 1351.911 C 349.030 1352.964 347.817 1354.011 346.564 1355.006 C 345.311 1356.000 344.011 1356.936 342.718 1357.878 C 341.426 1358.821 340.135 1359.771 338.808 1360.663 C 337.482 1361.554 336.121 1362.389 334.760 1363.227 C 333.399 1364.065 332.029 1364.893 330.642 1365.689 C 329.255 1366.484 327.874 1367.299 326.439 1368.001 C 325.004 1368.702 323.513 1369.295 322.032 1369.897 C 320.552 1370.500 319.037 1371.015 317.555 1371.616 C 316.074 1372.218 314.658 1373.009 313.145 1373.508 C 311.632 1374.007 310.018 1374.192 308.475 1374.611 C 306.932 1375.030 305.437 1375.636 303.887 1376.023 C 302.338 1376.410 300.756 1376.665 299.179 1376.932 C 297.603 1377.198 301.721 1377.277 294.427 1377.622 C 287.134 1377.966 262.681 1379.001 255.417 1379.000 Z"/>
<path d="M 369.000 180.256 C 367.826 180.418 366.401 179.073 365.457 177.979 C 364.513 176.885 363.929 175.167 363.337 173.690 C 362.744 172.212 362.434 170.620 361.902 169.114 C 361.369 167.608 360.703 166.150 360.142 164.654 C 359.581 163.157 359.069 161.642 358.535 160.136 C 358.001 158.629 357.472 157.122 356.939 155.617 C 356.405 154.111 355.852 152.614 355.334 151.104 C 354.816 149.593 354.354 148.062 353.830 146.553 C 353.305 145.044 352.709 143.559 352.187 142.049 C 351.665 140.539 351.225 139.000 350.697 137.492 C 350.169 135.984 349.546 134.511 349.019 133.002 C 348.492 131.493 348.082 129.942 347.537 128.439 C 346.992 126.937 346.271 125.498 345.749 123.988 C 345.227 122.479 344.921 120.893 344.403 119.382 C 343.885 117.871 343.160 116.431 342.640 114.920 C 342.120 113.409 341.797 111.830 341.282 110.317 C 340.766 108.805 340.038 107.365 339.548 105.845 C 339.057 104.326 338.803 102.730 338.338 101.202 C 337.873 99.673 337.253 98.192 336.758 96.672 C 336.264 95.152 335.903 93.587 335.372 92.081 C 334.842 90.575 334.104 89.143 333.575 87.637 C 333.047 86.130 332.716 84.553 332.201 83.041 C 331.685 81.529 331.025 80.068 330.483 78.565 C 329.941 77.062 329.477 75.529 328.947 74.022 C 328.417 72.516 327.809 71.039 327.301 69.526 C 326.794 68.013 326.416 66.454 325.900 64.943 C 325.385 63.432 324.763 61.957 324.208 60.459 C 323.653 58.960 323.113 57.456 322.570 55.953 C 322.028 54.450 321.493 52.946 320.953 51.443 C 320.413 49.940 319.871 48.439 319.333 46.935 C 318.795 45.431 318.289 43.914 317.726 42.419 C 317.164 40.924 316.503 39.466 315.959 37.965 C 315.416 36.464 314.982 34.925 314.467 33.413 C 313.953 31.900 313.347 30.415 312.871 28.889 C 312.396 27.363 312.050 25.797 311.615 24.258 C 311.181 22.719 310.593 21.210 310.266 19.653 C 309.940 18.096 309.518 16.460 309.655 14.916 C 309.792 13.371 310.425 11.817 311.088 10.388 C 311.751 8.959 312.549 7.460 313.633 6.340 C 314.717 5.220 316.167 4.319 317.592 3.666 C 319.016 3.013 320.617 2.628 322.182 2.423 C 323.746 2.217 325.385 2.333 326.978 2.431 C 328.570 2.528 330.168 2.717 331.738 3.008 C 333.307 3.299 334.829 3.840 336.392 4.177 C 337.955 4.514 339.557 4.678 341.116 5.029 C 342.674 5.380 344.204 5.854 345.744 6.283 C 347.284 6.712 348.822 7.155 350.358 7.601 C 351.893 8.047 353.433 8.480 354.958 8.959 C 356.483 9.437 357.988 9.979 359.508 10.471 C 361.028 10.964 362.572 11.380 364.078 11.912 C 365.583 12.444 367.056 13.074 368.541 13.664 C 370.026 14.254 371.500 14.867 372.987 15.452 C 374.473 16.038 376.000 16.535 377.461 17.178 C 378.922 17.822 380.308 18.634 381.752 19.316 C 383.197 19.997 384.675 20.606 386.127 21.268 C 387.579 21.930 389.044 22.564 390.464 23.289 C 391.884 24.014 393.242 24.863 394.648 25.619 C 396.053 26.375 397.474 27.100 398.897 27.825 C 400.320 28.550 401.785 29.201 403.186 29.967 C 404.587 30.733 405.922 31.617 407.302 32.421 C 408.683 33.226 410.097 33.979 411.470 34.796 C 412.843 35.614 414.180 36.487 415.539 37.326 C 416.899 38.166 418.262 38.999 419.626 39.832 C 420.989 40.666 422.358 41.494 423.722 42.329 C 425.086 43.163 426.481 43.951 427.810 44.839 C 429.139 45.726 430.407 46.706 431.695 47.653 C 432.983 48.601 434.252 49.579 435.539 50.525 C 436.827 51.471 438.012 52.795 439.421 53.332 C 440.830 53.868 442.541 54.075 443.994 53.742 C 445.447 53.409 446.753 52.127 448.139 51.331 C 449.524 50.535 450.933 49.777 452.309 48.965 C 453.684 48.153 455.019 47.274 456.393 46.458 C 457.766 45.642 459.160 44.857 460.551 44.070 C 461.943 43.283 463.330 42.489 464.740 41.737 C 466.150 40.984 467.602 40.309 469.011 39.555 C 470.420 38.802 471.804 37.999 473.196 37.214 C 474.589 36.429 475.964 35.613 477.365 34.846 C 478.767 34.078 480.192 33.352 481.607 32.608 C 483.021 31.863 484.427 31.100 485.851 30.378 C 487.275 29.655 488.717 28.977 490.151 28.274 C 491.585 27.570 493.010 26.838 494.456 26.157 C 495.903 25.477 497.355 24.803 498.829 24.190 C 500.304 23.577 501.820 23.071 503.303 22.478 C 504.786 21.884 506.234 21.198 507.727 20.629 C 509.220 20.059 510.766 19.620 512.261 19.060 C 513.755 18.500 515.174 17.730 516.693 17.267 C 518.212 16.804 520.743 15.846 521.374 16.280 C 522.006 16.714 521.168 18.681 520.482 19.871 C 519.795 21.061 518.356 22.260 517.256 23.421 C 516.157 24.582 515.023 25.713 513.884 26.836 C 512.745 27.959 511.569 29.043 510.425 30.160 C 509.280 31.277 508.159 32.418 507.016 33.538 C 505.873 34.657 504.702 35.748 503.567 36.875 C 502.432 38.003 501.346 39.180 500.207 40.302 C 499.067 41.425 497.881 42.501 496.729 43.611 C 495.578 44.722 494.457 45.863 493.298 46.966 C 492.139 48.068 490.939 49.129 489.775 50.226 C 488.611 51.324 487.452 52.427 486.312 53.550 C 485.173 54.672 484.069 55.830 482.936 56.959 C 481.803 58.089 480.640 59.188 479.515 60.325 C 478.391 61.463 477.307 62.640 476.189 63.784 C 475.070 64.928 473.927 66.048 472.806 67.189 C 471.684 68.330 470.583 69.490 469.459 70.628 C 468.335 71.767 467.180 72.875 466.064 74.021 C 464.948 75.168 463.859 76.339 462.764 77.506 C 461.669 78.673 460.585 79.850 459.496 81.021 C 458.406 82.193 457.318 83.366 456.227 84.536 C 455.136 85.706 454.050 86.882 452.950 88.043 C 451.849 89.204 450.725 90.343 449.624 91.504 C 448.522 92.664 447.440 93.843 446.341 95.006 C 445.243 96.169 444.117 97.308 443.032 98.483 C 441.946 99.658 440.901 100.870 439.828 102.057 C 438.755 103.244 437.679 104.428 436.594 105.605 C 435.510 106.781 434.421 107.953 433.321 109.114 C 432.221 110.276 431.103 111.420 429.993 112.572 C 428.883 113.725 427.769 114.874 426.662 116.028 C 425.554 117.182 424.459 118.349 423.347 119.499 C 422.235 120.650 421.111 121.788 419.990 122.930 C 418.870 124.071 417.735 125.200 416.623 126.350 C 415.512 127.501 414.404 128.655 413.320 129.832 C 412.237 131.009 411.197 132.226 410.123 133.411 C 409.049 134.597 407.941 135.753 406.875 136.946 C 405.809 138.138 404.773 139.358 403.726 140.567 C 402.678 141.776 401.623 142.980 400.587 144.199 C 399.551 145.417 398.545 146.662 397.507 147.878 C 396.469 149.095 395.391 150.279 394.357 151.500 C 393.324 152.721 392.337 153.981 391.307 155.205 C 390.278 156.430 389.211 157.623 388.182 158.848 C 387.154 160.074 386.161 161.328 385.136 162.556 C 384.110 163.784 383.075 165.004 382.031 166.216 C 380.987 167.428 379.927 168.626 378.872 169.829 C 377.817 171.032 376.765 172.238 375.703 173.434 C 374.641 174.630 373.617 175.867 372.500 177.004 C 371.383 178.141 370.174 180.093 369.000 180.256 Z"/>
</g></svg>